# xmcd
#
# Track frame offsets: 
#        150
#        18342
#        31836
#        48655
#        61436
#        79567
#        95423
#        109856
#        126095
#        141783
#        155132
#        169058
#        187629
#        203941
#        216348
#        230899
#        248041
#        263160
#
# Disc length: 3746 seconds
#
# Revision: 0
# Processed by: cddbd v1.4PL0 Copyright (c) Steve Scherf et al.
# Submitted via: ExactAudioCopy v0.90b3
#
DISCID=fb0ea012
DTITLE=Dean Brothers - Magic Moments
DYEAR=2001
DGENRE=Country
TTITLE0=Elvis Medley (Treat me nice - Such a night -Paralyzed)
TTITLE1=Like I've never been gone
TTITLE2=Ain't that a shame
TTITLE3=Running Bear
TTITLE4=Wasted days and wasted nights
TTITLE5=Walk right back
TTITLE6=Magic moments
TTITLE7=True love - Always and ever
TTITLE8=Love's a gas
TTITLE9=(Just tell her) Jim said hello
TTITLE10=Tico Tico
TTITLE11=Waltz across Texas - You're the only good thing
TTITLE12=Save the last dance
TTITLE13=(Beat me daddy) Eight to the bar
TTITLE14=That's amore (that's love)
TTITLE15=Before the next teardrop falls
TTITLE16=Mona Lisa
TTITLE17=Southbound train
EXTD=
EXTT0=
EXTT1=
EXTT2=
EXTT3=
EXTT4=
EXTT5=
EXTT6=
EXTT7=
EXTT8=
EXTT9=
EXTT10=
EXTT11=
EXTT12=
EXTT13=
EXTT14=
EXTT15=
EXTT16=
EXTT17=
PLAYORDER=
